<svg xmlns="http://www.w3.org/2000/svg" id="Layer_1" width="32" height="32" x="0" y="0" version="1.0" viewBox="0 0 32 32" xml:space="preserve"><path style="line-height:normal;text-indent:0;text-align:start;text-decoration-line:none;text-decoration-style:solid;text-decoration-color:#000;text-transform:none;block-progression:tb;white-space:normal;isolation:auto;mix-blend-mode:normal;solid-color:#000;solid-opacity:1" id="path5777" fill="#000" fill-opacity="1" fill-rule="evenodd" stroke="none" stroke-dasharray="none" stroke-dashoffset="0" stroke-linecap="butt" stroke-linejoin="miter" stroke-miterlimit="4" stroke-opacity="1" stroke-width="1" d="M 9.8535156 0 L 9.8535156 9.8535156 L 0 9.8535156 L 0 10.853516 L 9.8535156 10.853516 L 9.8535156 21.146484 L 0 21.146484 L 0 22.146484 L 9.8535156 22.146484 L 9.8535156 32 L 10.853516 32 L 10.853516 22.146484 L 21.146484 22.146484 L 21.146484 32 L 22.146484 32 L 22.146484 22.146484 L 32 22.146484 L 32 21.146484 L 22.146484 21.146484 L 22.146484 10.853516 L 32 10.853516 L 32 9.8535156 L 22.146484 9.8535156 L 22.146484 0 L 21.146484 0 L 21.146484 9.8535156 L 10.853516 9.8535156 L 10.853516 0 L 9.8535156 0 z M 10.853516 10.853516 L 21.146484 10.853516 L 21.146484 21.146484 L 10.853516 21.146484 L 10.853516 10.853516 z M 27.388672 12.205078 C 25.299161 12.205078 23.59375 13.910489 23.59375 16 C 23.59375 18.089511 25.299161 19.794922 27.388672 19.794922 C 29.478183 19.794922 31.181641 18.089511 31.181641 16 C 31.181641 13.910489 29.478183 12.205078 27.388672 12.205078 z M 13.529297 12.822266 L 12.822266 13.529297 L 15.292969 16 L 12.822266 18.470703 L 13.529297 19.177734 L 16 16.707031 L 18.470703 19.177734 L 19.177734 18.470703 L 16.707031 16 L 19.177734 13.529297 L 18.470703 12.822266 L 16 15.292969 L 13.529297 12.822266 z M 27.388672 13.205078 C 28.937743 13.205078 30.181641 14.450929 30.181641 16 C 30.181641 17.549071 28.937743 18.794922 27.388672 18.794922 C 25.839601 18.794922 24.59375 17.549071 24.59375 16 C 24.59375 14.450929 25.839601 13.205078 27.388672 13.205078 z M 16 23.587891 C 13.910489 23.58789 12.205079 25.291349 12.205078 27.380859 C 12.205078 29.470371 13.910489 31.175781 16 31.175781 C 18.089511 31.175781 19.794922 29.470371 19.794922 27.380859 C 19.794921 25.291349 18.089511 23.58789 16 23.587891 z M 2.3242188 24.205078 L 1.6171875 24.912109 L 4.0859375 27.382812 L 1.6171875 29.851562 L 2.3242188 30.558594 L 4.7929688 28.089844 L 7.2636719 30.558594 L 7.9707031 29.851562 L 5.5 27.382812 L 7.9707031 24.912109 L 7.2636719 24.205078 L 4.7929688 26.675781 L 2.3242188 24.205078 z M 16 24.587891 C 17.549071 24.58789 18.794922 25.831789 18.794922 27.380859 C 18.794922 28.92993 17.549071 30.175781 16 30.175781 C 14.450929 30.175781 13.205078 28.92993 13.205078 27.380859 C 13.205078 25.831789 14.450929 24.58789 16 24.587891 z " baseline-shift="baseline" clip-rule="nonzero" color="#000" color-interpolation="sRGB" color-interpolation-filters="linearRGB" color-rendering="auto" direction="ltr" display="inline" enable-background="accumulate" font-family="sans-serif" font-size="medium" font-stretch="normal" font-style="normal" font-variant="normal" font-weight="400" image-rendering="auto" letter-spacing="normal" opacity="1" overflow="visible" shape-rendering="auto" text-anchor="start" text-decoration="none" text-rendering="auto" visibility="visible" word-spacing="normal" writing-mode="lr-tb"/></svg>